<svg xmlns="http://www.w3.org/2000/svg" width="32.806" height="32.806" viewBox="0 0 32.806 32.806">
  <path id="Icon_awesome-linkedin" data-name="Icon awesome-linkedin" d="M30.462,2.25H2.336A2.353,2.353,0,0,0,0,4.615V32.69a2.353,2.353,0,0,0,2.336,2.365H30.462a2.36,2.36,0,0,0,2.343-2.365V4.615A2.36,2.36,0,0,0,30.462,2.25ZM9.915,30.369H5.053V14.713h4.87V30.369ZM7.484,12.575A2.819,2.819,0,1,1,10.3,9.756,2.82,2.82,0,0,1,7.484,12.575ZM28.141,30.369H23.279V22.754c0-1.816-.037-4.152-2.526-4.152-2.534,0-2.922,1.977-2.922,4.02v7.747H12.969V14.713h4.665v2.138H17.7A5.121,5.121,0,0,1,22.3,14.325c4.921,0,5.836,3.244,5.836,7.462Z" transform="translate(0 -2.25)" fill="#4ba062"/>
</svg>
