<svg xmlns="http://www.w3.org/2000/svg" width="35.601" height="35.601" viewBox="0 0 35.601 35.601">
  <path id="Icon_ionic-ios-close-circle" data-name="Icon ionic-ios-close-circle" d="M21.175,3.375a17.8,17.8,0,1,0,17.8,17.8A17.8,17.8,0,0,0,21.175,3.375Zm4.51,24.245-4.51-4.51-4.51,4.51a1.368,1.368,0,1,1-1.934-1.934l4.51-4.51-4.51-4.51a1.368,1.368,0,0,1,1.934-1.934l4.51,4.51,4.51-4.51a1.368,1.368,0,0,1,1.934,1.934l-4.51,4.51,4.51,4.51a1.374,1.374,0,0,1,0,1.934A1.359,1.359,0,0,1,25.685,27.62Z" transform="translate(-3.375 -3.375)" fill="#4ba062"/>
</svg>
