<svg xmlns="http://www.w3.org/2000/svg" width="32.806" height="31.986" viewBox="0 0 32.806 31.986">
  <path id="Icon_awesome-github" data-name="Icon awesome-github" d="M10.973,26.318c0,.132-.152.238-.344.238-.218.02-.37-.086-.37-.238,0-.132.152-.238.344-.238C10.8,26.06,10.973,26.166,10.973,26.318Zm-2.057-.3c-.046.132.086.284.284.324a.31.31,0,0,0,.41-.132c.04-.132-.086-.284-.284-.344A.339.339,0,0,0,8.916,26.02Zm2.923-.112c-.192.046-.324.172-.3.324.02.132.192.218.39.172s.324-.172.3-.3S12.031,25.888,11.839,25.908ZM16.191.562A15.86,15.86,0,0,0,0,16.7,16.582,16.582,0,0,0,11.211,32.522c.847.152,1.144-.37,1.144-.8,0-.41-.02-2.672-.02-4.061,0,0-4.63.992-5.6-1.971,0,0-.754-1.925-1.839-2.421,0,0-1.515-1.038.106-1.019a3.491,3.491,0,0,1,2.553,1.706,3.5,3.5,0,0,0,4.822,1.382,3.676,3.676,0,0,1,1.058-2.229c-3.7-.41-7.428-.946-7.428-7.309a5.013,5.013,0,0,1,1.561-3.9,6.249,6.249,0,0,1,.172-4.491C9.121,6.985,12.3,9.2,12.3,9.2a15.625,15.625,0,0,1,8.307,0s3.181-2.222,4.564-1.786a6.246,6.246,0,0,1,.172,4.491,5.141,5.141,0,0,1,1.706,3.9c0,6.383-3.9,6.892-7.593,7.309a3.911,3.911,0,0,1,1.124,3.069c0,2.229-.02,4.987-.02,5.529,0,.43.3.952,1.144.8A16.429,16.429,0,0,0,32.806,16.7C32.806,7.527,25.365.562,16.191.562ZM6.429,23.374c-.086.066-.066.218.046.344.106.106.258.152.344.066.086-.066.066-.218-.046-.344C6.667,23.335,6.515,23.288,6.429,23.374Zm-.714-.536c-.046.086.02.192.152.258a.2.2,0,0,0,.284-.046c.046-.086-.02-.192-.152-.258C5.867,22.753,5.761,22.773,5.715,22.839Zm2.143,2.355c-.106.086-.066.284.086.41.152.152.344.172.43.066.086-.086.046-.284-.086-.41C8.142,25.107,7.943,25.087,7.857,25.193ZM7.1,24.221c-.106.066-.106.238,0,.39s.284.218.37.152a.3.3,0,0,0,0-.41C7.381,24.2,7.209,24.135,7.1,24.221Z" transform="translate(0 -0.563)" fill="#4ba062"/>
</svg>
