<svg xmlns="http://www.w3.org/2000/svg" width="32.806" height="36.177" viewBox="0 0 32.806 36.177">
  <path id="Icon_simple-email" data-name="Icon simple-email" d="M34.453,16.7a18.658,18.658,0,0,1-.6,4.047A11.71,11.71,0,0,1,32.279,24.3a8.3,8.3,0,0,1-2.668,2.525,7.528,7.528,0,0,1-3.9.961,5.647,5.647,0,0,1-2.817-.689A4.824,4.824,0,0,1,21,25.143a6.033,6.033,0,0,1-5.1,2.564,5.19,5.19,0,0,1-4.456-2.4,7.844,7.844,0,0,1-1.108-2.776,11.972,11.972,0,0,1-.145-3.622,16.823,16.823,0,0,1,1.1-4.435,12.056,12.056,0,0,1,2.039-3.4,8.626,8.626,0,0,1,2.8-2.166,7.822,7.822,0,0,1,3.409-.757,10.6,10.6,0,0,1,2.039.174,8.346,8.346,0,0,1,1.582.475A8.558,8.558,0,0,1,24.47,9.5c.4.258.8.524,1.2.8l-.99,11.394a3.787,3.787,0,0,0,.029,1.334,1.866,1.866,0,0,0,.407.823,1.465,1.465,0,0,0,.66.43,2.451,2.451,0,0,0,2.319-.457,4.943,4.943,0,0,0,1.243-1.582,10.192,10.192,0,0,0,.836-2.378,16.317,16.317,0,0,0,.366-2.961,18.926,18.926,0,0,0-.466-5.534,11,11,0,0,0-2.048-4.282A9.511,9.511,0,0,0,24.36,4.32a13.325,13.325,0,0,0-5.349-.979,11.81,11.81,0,0,0-5.29,1.153A12.137,12.137,0,0,0,9.7,7.691,15.341,15.341,0,0,0,7.07,12.5,21.669,21.669,0,0,0,5.962,18.49,19.921,19.921,0,0,0,6.528,24.6a11.04,11.04,0,0,0,2.234,4.381,9.321,9.321,0,0,0,3.784,2.631,14.516,14.516,0,0,0,5.222.873,17.886,17.886,0,0,0,3.427-.368c.565-.113,1.1-.249,1.612-.4a12.132,12.132,0,0,0,1.388-.5l.717,3.224a7.955,7.955,0,0,1-1.553.769,14.95,14.95,0,0,1-1.836.531,17.911,17.911,0,0,1-3.834.43,20.106,20.106,0,0,1-6.99-1.126A12.865,12.865,0,0,1,5.6,31.7a14.07,14.07,0,0,1-3.059-5.532A23.6,23.6,0,0,1,1.69,18.49a23.42,23.42,0,0,1,1.469-7.37A18.239,18.239,0,0,1,6.7,5.265,16.132,16.132,0,0,1,12.1,1.4,16.909,16.909,0,0,1,19.095,0a17.653,17.653,0,0,1,6.777,1.214,13.182,13.182,0,0,1,4.892,3.414,14.009,14.009,0,0,1,2.9,5.274A20.166,20.166,0,0,1,34.453,16.7ZM15.039,18.913a7.69,7.69,0,0,0,.4,3.814A2.045,2.045,0,0,0,17.4,24.015a2.172,2.172,0,0,0,.674-.124,2.4,2.4,0,0,0,.775-.466,4.138,4.138,0,0,0,.787-.949,7.286,7.286,0,0,0,.723-1.605l.773-8.853a4.619,4.619,0,0,0-1.2-.158,4.158,4.158,0,0,0-2,.459,3.961,3.961,0,0,0-1.417,1.347,7.912,7.912,0,0,0-.94,2.215,18.794,18.794,0,0,0-.534,3.029Z" transform="translate(-1.67)" fill="#4ba062"/>
</svg>
